<svg width="29" height="29" viewBox="0 0 29 29" fill="none" xmlns="http://www.w3.org/2000/svg">
<g id="np_logout_4778182_000000 1">
<path id="Vector" fill-rule="evenodd" clip-rule="evenodd" d="M14.5 1.61087C11.0812 1.61087 7.80274 2.96911 5.38646 5.38667C2.96905 7.80295 1.61066 11.0814 1.61066 14.5002C1.61066 17.919 2.9689 21.1975 5.38646 23.6138C7.80274 26.0312 11.0812 27.3896 14.5 27.3896C17.9188 27.3896 21.1973 26.0313 23.6135 23.6138C26.031 21.1975 27.3893 17.919 27.3893 14.5002C27.3893 11.0814 26.0311 7.80295 23.6135 5.38667C21.1973 2.96926 17.9188 1.61087 14.5 1.61087ZM11.1728 17.1905C10.8273 17.3287 10.432 17.2494 10.1657 16.9889L8.32152 15.1447C8.14707 14.9725 8.04964 14.7369 8.04964 14.4922C8.04964 14.2475 8.14707 14.0119 8.32152 13.8397L10.1657 11.9955V11.9943C10.4229 11.6975 10.8409 11.5978 11.2045 11.7451C11.5693 11.8924 11.7993 12.2549 11.7766 12.6468V13.5655H15.4582V15.4098L11.7369 15.4109V16.3296V16.3285C11.7425 16.7046 11.5195 17.0455 11.1728 17.1905ZM20.9444 17.263C20.9421 18.4819 20.4573 19.651 19.5952 20.5131C18.732 21.3752 17.5641 21.8611 16.344 21.8634H12.6555V20.026H16.3371H16.3359C17.0688 20.026 17.7723 19.7348 18.29 19.2171C18.8077 18.6983 19.0989 17.996 19.0989 17.263V11.7371C19.0989 10.2112 17.8619 8.97414 16.336 8.97414H12.6556V7.13673H16.3371H16.336C17.5571 7.13673 18.7274 7.62158 19.5918 8.48364C20.4562 9.34685 20.9421 10.5159 20.9444 11.7371L20.9444 17.263Z" fill="#A0A0A0"/>
</g>
</svg>
