<svg width="176" height="40" viewBox="0 0 176 40" fill="none" xmlns="http://www.w3.org/2000/svg">
<g clip-path="url(#clip0_4_295)">
<mask id="mask0_4_295" style="mask-type:luminance" maskUnits="userSpaceOnUse" x="54" y="0" width="5" height="32">
<path d="M54.5859 0H58.6895V31.6512H54.5859V0Z" fill="white"/>
</mask>
<g mask="url(#mask0_4_295)">
<path fill-rule="evenodd" clip-rule="evenodd" d="M54.6454 2.04068C54.6383 4.03412 54.6247 10.4925 54.6124 16.6695C54.6001 22.8459 54.5891 28.7436 54.5859 29.5961C54.582 30.7272 55.484 31.6472 56.6008 31.6512C57.7177 31.6558 58.6261 30.7417 58.63 29.6105C58.6333 28.7469 58.6443 22.8564 58.6565 16.6781C58.6688 10.5017 58.6824 4.04003 58.6896 2.05576C58.6934 0.92396 57.7914 0.00395967 56.6746 1.25811e-05C55.5578 -0.00390918 54.6493 0.909533 54.6454 2.04068Z" fill="black"/>
</g>
<path fill-rule="evenodd" clip-rule="evenodd" d="M49.2988 29.8059C49.2988 25.8275 49.2988 21.5764 49.2988 19.8603C49.2988 18.2098 48.9675 16.6269 48.3677 15.1908C47.467 13.036 45.9684 11.2085 44.0796 9.91539C42.1921 8.62293 39.9028 7.86556 37.4576 7.86621C35.8283 7.86556 34.265 8.20195 32.848 8.80916C30.7198 9.72129 28.9158 11.2393 27.6398 13.1528C26.3631 15.0642 25.6151 17.3829 25.6158 19.8603C25.6158 21.5101 25.9477 23.0931 26.5475 24.5292C27.4476 26.6839 28.9468 28.5115 30.8356 29.8039C32.7231 31.097 35.0117 31.8544 37.4576 31.8538C38.9885 31.8538 40.4606 31.5574 41.8084 31.017C42.847 30.6013 43.3562 29.4118 42.946 28.36C42.5357 27.3075 41.3607 26.7921 40.3221 27.2079C39.4363 27.562 38.4741 27.7574 37.4576 27.7574C36.3751 27.7574 35.3547 27.5364 34.4229 27.1377C33.0265 26.5397 31.8321 25.5357 30.9909 24.2741C30.1497 23.0111 29.6612 21.5029 29.6599 19.8603C29.6605 18.7639 29.8786 17.7305 30.272 16.7869C30.8621 15.3718 31.8534 14.162 33.099 13.3101C34.3465 12.4583 35.8354 11.9633 37.4576 11.9626C38.5395 11.9626 39.5599 12.1836 40.4917 12.5823C41.8887 13.1803 43.0831 14.1842 43.9243 15.4459C44.7648 16.7088 45.2534 18.217 45.2547 19.8603C45.2547 21.5764 45.2547 25.8275 45.2547 29.8059C45.2547 30.9364 46.1599 31.8538 47.2767 31.8538C48.3935 31.8538 49.2988 30.9364 49.2988 29.8059Z" fill="black"/>
<path fill-rule="evenodd" clip-rule="evenodd" d="M140.715 30.2242C140.729 26.2459 140.744 21.9947 140.75 20.2787V20.2347C140.75 18.5895 140.42 17.0105 139.823 15.5777C138.927 13.4269 137.435 11.6013 135.553 10.3069C133.673 9.01244 131.39 8.24981 128.95 8.24194H128.908C127.284 8.24194 125.725 8.57571 124.31 9.1803C122.186 10.0885 120.384 11.5993 119.106 13.5056C117.827 15.4105 117.075 17.7213 117.067 20.1928V20.1915V20.2367C117.067 21.8819 117.397 23.461 117.994 24.8937C118.89 27.0446 120.382 28.8701 122.264 30.1646C124.144 31.459 126.426 32.2216 128.866 32.2295H128.909C130.424 32.2295 131.883 31.939 133.22 31.4085C134.261 30.9967 134.774 29.8092 134.367 28.7554C133.96 27.7016 132.787 27.1816 131.747 27.5941C130.868 27.9416 129.915 28.1331 128.909 28.1331H128.88H128.881C127.801 28.1292 126.783 27.9056 125.854 27.5049C124.462 26.9049 123.273 25.9003 122.435 24.6406C121.598 23.379 121.112 21.8741 121.111 20.2367V20.2072C121.115 19.1141 121.336 18.0833 121.731 17.1423C122.324 15.7324 123.316 14.5272 124.56 13.6793C125.805 12.8315 127.291 12.339 128.908 12.3383H128.936C130.016 12.3423 131.033 12.5659 131.962 12.9665C133.354 13.5665 134.544 14.5711 135.382 15.8308C136.218 17.0924 136.705 18.5974 136.705 20.2347V20.2642C136.7 21.981 136.684 26.2315 136.67 30.2098C136.667 31.3403 137.569 32.261 138.685 32.2649C139.802 32.2688 140.711 31.3554 140.715 30.2242Z" fill="black"/>
<mask id="mask1_4_295" style="mask-type:luminance" maskUnits="userSpaceOnUse" x="0" y="0" width="176" height="40">
<path d="M0 0.409851H175.502V39.5109H0V0.409851Z" fill="white"/>
</mask>
<g mask="url(#mask1_4_295)">
<path fill-rule="evenodd" clip-rule="evenodd" d="M164.013 2.45053C163.999 6.42889 163.956 18.6361 163.949 20.3528C163.945 21.4466 163.725 22.4774 163.329 23.4177C162.737 24.8276 161.745 26.0328 160.501 26.8807C159.255 27.7292 157.77 28.221 156.153 28.2223H156.123H156.125C155.045 28.2177 154.027 27.9941 153.099 27.5941C151.707 26.9935 150.517 25.9889 149.68 24.7292C148.842 23.4682 148.356 21.9627 148.355 20.3253V20.2964C148.36 19.2027 148.58 18.1718 148.976 17.2315C149.568 15.821 150.56 14.6164 151.804 13.7679C153.049 12.92 154.535 12.4276 156.152 12.4269H156.182H156.18C157.197 12.4309 158.159 12.6295 159.043 12.9869C160.08 13.4066 161.257 12.8951 161.671 11.8446C162.085 10.7941 161.58 9.60201 160.543 9.18299C159.197 8.63807 157.726 8.33578 156.195 8.33119H156.197L156.152 8.33053C154.527 8.33053 152.969 8.6643 151.553 9.26955C149.43 10.1771 147.628 11.6886 146.35 13.5941C145.072 15.4991 144.319 17.8105 144.311 20.282V20.2735C144.311 20.2958 144.311 20.3135 144.311 20.3253C144.311 21.9712 144.641 23.5495 145.238 24.983C146.134 27.1332 147.626 28.9587 149.508 30.2532C151.388 31.5476 153.67 32.3102 156.11 32.3181H156.153C157.777 32.3181 159.336 31.9843 160.751 31.3797C162.874 30.4722 164.677 28.9607 165.955 27.0545C167.233 25.1502 167.986 22.8387 167.993 20.3673C168 18.6512 168.042 6.44332 168.057 2.46496C168.061 1.33447 167.159 0.413811 166.042 0.409864C164.925 0.405942 164.016 1.31938 164.013 2.45053Z" fill="black"/>
</g>
<mask id="mask2_4_295" style="mask-type:luminance" maskUnits="userSpaceOnUse" x="0" y="0" width="176" height="40">
<path d="M0 0.409851H175.502V39.5109H0V0.409851Z" fill="white"/>
</mask>
<g mask="url(#mask2_4_295)">
<path fill-rule="evenodd" clip-rule="evenodd" d="M93.9226 37.5096C93.9368 33.5312 93.9795 21.324 93.9853 19.6073C93.9899 18.5135 94.2105 17.4833 94.6059 16.5423C95.1986 15.1325 96.1905 13.9273 97.4341 13.0794C98.6797 12.2309 100.165 11.7391 101.782 11.7378L101.812 11.7384H101.811C102.89 11.7423 103.908 11.9659 104.837 12.3659C106.228 12.9666 107.418 13.9712 108.256 15.2309C109.093 16.4925 109.579 17.9974 109.579 19.6348V19.6669V19.6637C109.576 20.7574 109.355 21.7882 108.96 22.7286C108.367 24.1391 107.375 25.3437 106.131 26.1922C104.886 27.04 103.399 27.5325 101.783 27.5332H101.752H101.755C100.738 27.5292 99.7765 27.3305 98.8926 26.9732C97.8554 26.5535 96.6784 27.065 96.2643 28.1155C95.8501 29.1653 96.3549 30.3574 97.3914 30.7771C98.738 31.322 100.209 31.6243 101.74 31.6296H101.783C103.408 31.6296 104.967 31.2958 106.381 30.6905C108.505 29.783 110.307 28.2715 111.585 26.3659C112.863 24.461 113.616 22.1496 113.624 19.6781V19.6348C113.624 17.9889 113.294 16.4105 112.697 14.9771C111.801 12.8269 110.309 11.0014 108.427 9.70693C106.547 8.41251 104.265 7.64988 101.825 7.64136H101.828H101.782C100.158 7.64136 98.5988 7.97578 97.1837 8.58037C95.0607 9.48791 93.258 10.9994 91.9801 12.9056C90.7021 14.8099 89.9496 17.1214 89.9412 19.5928C89.9354 21.3089 89.8927 33.5168 89.8784 37.4945C89.8746 38.6256 90.7766 39.5463 91.8934 39.5502C93.0102 39.5541 93.9187 38.6407 93.9226 37.5096Z" fill="black"/>
</g>
<mask id="mask3_4_295" style="mask-type:luminance" maskUnits="userSpaceOnUse" x="0" y="0" width="176" height="40">
<path d="M0 0.409851H175.502V39.5109H0V0.409851Z" fill="white"/>
</mask>
<g mask="url(#mask3_4_295)">
<path fill-rule="evenodd" clip-rule="evenodd" d="M21.2766 12.1817C20.1986 10.724 18.8035 9.52265 17.1878 8.68265C15.5741 7.8433 13.7364 7.36855 11.8024 7.3692C10.1731 7.3692 8.61042 7.70494 7.19271 8.31215C5.06518 9.22429 3.26118 10.7423 1.98454 12.6558C0.707888 14.5672 -0.0394646 16.8859 -0.0388179 19.3626C-0.0388179 21.0131 0.292477 22.5961 0.892947 24.0315C1.79301 26.1869 3.29159 28.0144 5.18036 29.3069C7.06783 30.6 9.35712 31.3574 11.8024 31.3567C13.7364 31.3574 15.5741 30.882 17.1878 30.0426C18.8035 29.2033 20.1986 28.002 21.2766 26.5443C21.9457 25.6387 21.7638 24.3548 20.8702 23.6774C19.976 22.9994 18.7084 23.1836 18.0394 24.0892C17.3269 25.0525 16.4029 25.8472 15.3424 26.3981C14.2799 26.9495 13.0848 27.2597 11.8024 27.2603C10.7205 27.2597 9.70006 27.0394 8.7683 26.6407C7.3713 26.0426 6.17683 25.0387 5.33565 23.7771C4.49512 22.5141 4.00595 21.0053 4.0053 19.3626C4.0053 18.2669 4.22336 17.2328 4.61742 16.2892C5.20754 14.8748 6.19883 13.6649 7.44442 12.8125C8.6913 11.9613 10.1808 11.4663 11.8024 11.4649C13.0848 11.4656 14.2799 11.7764 15.3424 12.3272C16.4029 12.8787 17.3269 13.6728 18.0394 14.6367C18.7084 15.5417 19.976 15.7266 20.8696 15.0485C21.7638 14.3705 21.9457 13.0872 21.2766 12.1817Z" fill="black"/>
</g>
<mask id="mask4_4_295" style="mask-type:luminance" maskUnits="userSpaceOnUse" x="0" y="0" width="176" height="40">
<path d="M0 0.409851H175.502V39.5109H0V0.409851Z" fill="white"/>
</mask>
<g mask="url(#mask4_4_295)">
<path fill-rule="evenodd" clip-rule="evenodd" d="M169.956 29.9915C169.896 28.4407 171.088 27.1344 172.619 27.0741C174.15 27.0131 175.44 28.221 175.5 29.7718C175.56 31.322 174.367 32.6289 172.836 32.6892C171.306 32.7502 170.015 31.5423 169.956 29.9915Z" fill="black"/>
</g>
<path fill-rule="evenodd" clip-rule="evenodd" d="M82.577 19.5659C82.5725 20.6597 82.3518 21.6905 81.9571 22.6308C81.3638 24.0406 80.3725 25.2459 79.1288 26.0944C77.8832 26.9423 76.3976 27.4347 74.7806 27.4354H74.7521C73.6722 27.4308 72.6543 27.2079 71.7258 26.8072C70.334 26.2065 69.1441 25.2026 68.3068 23.9423C67.4695 22.6813 66.9835 21.1764 66.9829 19.539V19.5095C66.9868 18.4157 67.2074 17.3856 67.6028 16.4446C68.1955 15.0347 69.1874 13.8295 70.4311 12.9816C71.6766 12.1338 73.1623 11.6413 74.7786 11.6406H74.8078C75.8871 11.6446 76.9049 11.8682 77.8334 12.2688C79.2259 12.8688 80.4152 13.8734 81.2531 15.1331C82.0904 16.3947 82.5763 17.8997 82.577 19.537V19.5659ZM85.6945 14.8793C84.7983 12.7292 83.3062 10.9036 81.4246 9.60917C79.5442 8.31474 77.2621 7.55212 74.822 7.54425H74.7786C73.1545 7.54425 71.5958 7.87802 70.1806 8.48261C68.0576 9.39015 66.2549 10.9016 64.977 12.8079C63.6991 14.7128 62.9465 17.0236 62.9381 19.4951V19.539C62.9381 21.1842 63.2681 22.7626 63.8653 24.1961C64.7615 26.3469 66.2536 28.1718 68.1353 29.4669C70.0156 30.7613 72.2978 31.5239 74.7379 31.5318H74.7806C76.4053 31.5318 77.9641 31.198 79.3792 30.5928C81.5022 29.6852 83.3043 28.1738 84.5822 26.2675C85.8602 24.3633 86.6133 22.0524 86.6211 19.581V19.537C86.6218 17.8911 86.2918 16.3128 85.6945 14.8793Z" fill="black"/>
</g>
<defs>
<clipPath id="clip0_4_295">
<rect width="176" height="40" fill="white"/>
</clipPath>
</defs>
</svg>
