<svg width="20" height="20" viewBox="0 0 20 20" fill="none" xmlns="http://www.w3.org/2000/svg">
<g id="Notification">
<path id="Vector 34" d="M6.67658 1.42432L7.24257 1.18176C9.00341 0.427111 10.9966 0.427112 12.7574 1.18176L13.3234 1.42432C15.5538 2.38022 17 4.57337 17 7V8.93628C17 10.6037 17.521 12.2294 18.4901 13.5862L19.5 15H0.5L1.50987 13.5862C2.47901 12.2294 3 10.6037 3 8.93628V7C3 4.57337 4.44615 2.38022 6.67658 1.42432Z" fill="#A0A0A0" stroke="#A0A0A0" stroke-linejoin="round"/>
<path id="Rectangle 16" d="M7 18.75C7 18.0596 7.55964 17.5 8.25 17.5H11.75C12.4404 17.5 13 18.0596 13 18.75C13 19.4404 12.4404 20 11.75 20H8.25C7.55964 20 7 19.4404 7 18.75Z" fill="#A0A0A0"/>
</g>
</svg>
