<svg width="21" height="21" viewBox="0 0 21 21" fill="none" xmlns="http://www.w3.org/2000/svg">
<g id="np_list_801654_000000 1" clip-path="url(#clip0_4_281)">
<path id="Vector" d="M20.0132 5.27145C20.0132 5.27145 19.3619 2.16324 16.5482 1.07145C15.225 0.567785 12.81 0.315113 10.4368 0.294617C8.04319 0.315124 5.62819 0.566966 4.30498 1.07145C1.4914 2.16328 0.839976 5.27145 0.839976 5.27145C0.419976 7.03511 0.29364 8.82003 0.29364 10.395C0.29364 11.9914 0.419968 13.7764 0.839976 15.54C0.839976 15.54 1.49131 18.6482 4.30498 19.74C5.62814 20.2437 8.04319 20.4964 10.4164 20.5169C12.7896 20.4955 15.2046 20.265 16.5278 19.74C19.3414 18.6482 19.9928 15.54 19.9928 15.54C20.4128 13.7764 20.5597 11.9914 20.5392 10.4164C20.5588 8.82011 20.4332 7.03503 20.0132 5.27145ZM5.87998 6.53145H7.60181V7.89645H5.87998V6.53145ZM7.60181 14.28H5.87998V12.915H7.60181V14.28ZM7.60181 11.025H5.87998V9.66003H7.60181V11.025ZM15.3718 14.28H9.05123V12.915H15.3727L15.3718 14.28ZM15.3718 11.025H9.05123V9.66003H15.3727L15.3718 11.025ZM15.3718 7.89645H9.05123V6.53145H15.3727L15.3718 7.89645Z" fill="#FF6B00"/>
</g>
<defs>
<clipPath id="clip0_4_281">
<rect width="21" height="21" fill="white"/>
</clipPath>
</defs>
</svg>
