<svg width="21" height="20" viewBox="0 0 21 20" fill="none" xmlns="http://www.w3.org/2000/svg">
<g id="Settings">
<path id="Subtract" fill-rule="evenodd" clip-rule="evenodd" d="M8.01772 0C7.72027 0 7.46772 0.217927 7.42418 0.512172L6.94287 3.76487C6.88627 4.14733 6.48803 4.37721 6.12853 4.23493L3.07081 3.02479C2.7942 2.91532 2.47914 3.02506 2.33039 3.28269L0.348185 6.71597C0.19946 6.97357 0.261918 7.30125 0.494971 7.48608L3.07204 9.5299C3.37493 9.77011 3.37493 10.2299 3.07204 10.4701L0.49497 12.5139C0.261917 12.6988 0.19946 13.0264 0.348184 13.284L2.33039 16.7173C2.47914 16.9749 2.79419 17.0847 3.0708 16.9752L6.12853 15.7651C6.48803 15.6228 6.88627 15.8527 6.94287 16.2351L7.42418 19.4878C7.46772 19.7821 7.72027 20 8.01772 20H11.9821C12.2796 20 12.5322 19.782 12.5757 19.4877L13.0565 16.2346C13.1131 15.8521 13.5113 15.6222 13.8708 15.7644L16.9284 16.9739C17.205 17.0833 17.52 16.9736 17.6687 16.716L19.6509 13.2827C19.7996 13.0251 19.7372 12.6973 19.504 12.5125L16.928 10.4702C16.625 10.2299 16.625 9.77006 16.928 9.52984L19.504 7.48748C19.7372 7.30266 19.7996 6.97494 19.6509 6.71731L17.6687 3.28403C17.52 3.02643 17.205 2.91668 16.9284 3.02609L13.8708 4.23561C13.5113 4.37783 13.1131 4.14788 13.0565 3.76541L12.5757 0.512267C12.5322 0.217979 12.2796 0 11.9821 0H8.01772ZM9.99998 13C11.6568 13 13 11.6569 13 10C13 8.34315 11.6568 7 9.99998 7C8.34312 7 6.99998 8.34315 6.99998 10C6.99998 11.6569 8.34312 13 9.99998 13Z" fill="#A0A0A0"/>
</g>
</svg>
